<mxfile host="app.diagrams.net" modified="2023-02-28T03:01:54.490Z" agent="5.0 (Windows NT 10.0; Win64; x64) AppleWebKit/537.36 (KHTML, like Gecko) Chrome/110.0.0.0 Safari/537.36 Edg/110.0.1587.57" etag="9-RjLzhuwVy91QTlvVgn" version="20.8.23" type="github">
  <diagram id="iAy_WtterzYg6XZJWjNR" name="Page-1">
    <mxGraphModel dx="2048" dy="783" grid="1" gridSize="10" guides="1" tooltips="1" connect="1" arrows="1" fold="1" page="1" pageScale="1" pageWidth="827" pageHeight="1169" math="0" shadow="0">
      <root>
        <mxCell id="0" />
        <mxCell id="1" parent="0" />
        <mxCell id="Jq019d58K4UbgzTfv4ik-1" value="이용자" style="shape=umlActor;verticalLabelPosition=bottom;verticalAlign=top;html=1;outlineConnect=0;" parent="1" vertex="1">
          <mxGeometry x="-190" y="50" width="30" height="60" as="geometry" />
        </mxCell>
        <mxCell id="Jq019d58K4UbgzTfv4ik-4" value="게시판 서비스" style="shape=umlFrame;whiteSpace=wrap;html=1;width=110;height=20;" parent="1" vertex="1">
          <mxGeometry x="-110" y="50" width="620" height="420" as="geometry" />
        </mxCell>
        <mxCell id="Jq019d58K4UbgzTfv4ik-18" style="rounded=0;orthogonalLoop=1;jettySize=auto;html=1;endArrow=none;endFill=0;" parent="1" source="Jq019d58K4UbgzTfv4ik-5" target="Jq019d58K4UbgzTfv4ik-1" edge="1">
          <mxGeometry relative="1" as="geometry" />
        </mxCell>
        <mxCell id="Jq019d58K4UbgzTfv4ik-5" value="회원 가입" style="rounded=1;whiteSpace=wrap;html=1;arcSize=40;fontColor=#000000;fillColor=#ffffc0;strokeColor=#ff0000;" parent="1" vertex="1">
          <mxGeometry x="-90" y="110" width="120" height="40" as="geometry" />
        </mxCell>
        <mxCell id="Jq019d58K4UbgzTfv4ik-20" style="edgeStyle=none;rounded=0;orthogonalLoop=1;jettySize=auto;html=1;endArrow=none;endFill=0;" parent="1" source="Jq019d58K4UbgzTfv4ik-7" edge="1">
          <mxGeometry relative="1" as="geometry">
            <mxPoint x="-150" y="90" as="targetPoint" />
          </mxGeometry>
        </mxCell>
        <mxCell id="Jq019d58K4UbgzTfv4ik-27" style="edgeStyle=none;rounded=0;orthogonalLoop=1;jettySize=auto;html=1;dashed=1;endArrow=classic;endFill=1;" parent="1" target="Jq019d58K4UbgzTfv4ik-9" edge="1">
          <mxGeometry relative="1" as="geometry">
            <mxPoint x="30" y="230" as="sourcePoint" />
          </mxGeometry>
        </mxCell>
        <mxCell id="ERruL2lt8ln_11H1umPP-4" style="rounded=0;orthogonalLoop=1;jettySize=auto;html=1;entryX=-0.002;entryY=0.907;entryDx=0;entryDy=0;entryPerimeter=0;endArrow=none;endFill=0;" edge="1" parent="1" source="Jq019d58K4UbgzTfv4ik-7" target="ERruL2lt8ln_11H1umPP-1">
          <mxGeometry relative="1" as="geometry" />
        </mxCell>
        <mxCell id="Jq019d58K4UbgzTfv4ik-7" value="게시판 보기" style="rounded=1;whiteSpace=wrap;html=1;arcSize=40;fontColor=#000000;fillColor=#ffffc0;strokeColor=#ff0000;" parent="1" vertex="1">
          <mxGeometry x="-90" y="210" width="120" height="40" as="geometry" />
        </mxCell>
        <mxCell id="Jq019d58K4UbgzTfv4ik-21" style="edgeStyle=none;rounded=0;orthogonalLoop=1;jettySize=auto;html=1;endArrow=none;endFill=0;" parent="1" source="Jq019d58K4UbgzTfv4ik-8" edge="1">
          <mxGeometry relative="1" as="geometry">
            <mxPoint x="-150" y="90" as="targetPoint" />
          </mxGeometry>
        </mxCell>
        <mxCell id="Jq019d58K4UbgzTfv4ik-28" style="edgeStyle=none;rounded=0;orthogonalLoop=1;jettySize=auto;html=1;dashed=1;endArrow=classic;endFill=1;" parent="1" target="Jq019d58K4UbgzTfv4ik-9" edge="1">
          <mxGeometry relative="1" as="geometry">
            <mxPoint x="30" y="370" as="sourcePoint" />
          </mxGeometry>
        </mxCell>
        <mxCell id="Jq019d58K4UbgzTfv4ik-8" value="게시글 보기" style="rounded=1;whiteSpace=wrap;html=1;arcSize=40;fontColor=#000000;fillColor=#ffffc0;strokeColor=#ff0000;" parent="1" vertex="1">
          <mxGeometry x="-90" y="350" width="120" height="40" as="geometry" />
        </mxCell>
        <mxCell id="Jq019d58K4UbgzTfv4ik-19" style="edgeStyle=none;rounded=0;orthogonalLoop=1;jettySize=auto;html=1;endArrow=none;endFill=0;" parent="1" source="Jq019d58K4UbgzTfv4ik-9" edge="1">
          <mxGeometry relative="1" as="geometry">
            <mxPoint x="-140" y="90" as="targetPoint" />
          </mxGeometry>
        </mxCell>
        <mxCell id="Jq019d58K4UbgzTfv4ik-22" value="&amp;lt;&amp;lt;include&amp;gt;&amp;gt;" style="edgeStyle=none;rounded=0;orthogonalLoop=1;jettySize=auto;html=1;entryX=0;entryY=0.5;entryDx=0;entryDy=0;endArrow=none;endFill=0;dashed=1;" parent="1" source="Jq019d58K4UbgzTfv4ik-9" target="Jq019d58K4UbgzTfv4ik-10" edge="1">
          <mxGeometry relative="1" as="geometry" />
        </mxCell>
        <mxCell id="Jq019d58K4UbgzTfv4ik-9" value="회원 로그인" style="rounded=1;whiteSpace=wrap;html=1;arcSize=40;fontColor=#000000;fillColor=#ffffc0;strokeColor=#ff0000;" parent="1" vertex="1">
          <mxGeometry x="120" y="70" width="134" height="40" as="geometry" />
        </mxCell>
        <mxCell id="ERruL2lt8ln_11H1umPP-3" style="rounded=0;orthogonalLoop=1;jettySize=auto;html=1;entryX=0;entryY=0.5;entryDx=0;entryDy=0;endArrow=none;endFill=0;" edge="1" parent="1" source="Jq019d58K4UbgzTfv4ik-10" target="ERruL2lt8ln_11H1umPP-1">
          <mxGeometry relative="1" as="geometry" />
        </mxCell>
        <mxCell id="Jq019d58K4UbgzTfv4ik-10" value="인증" style="rounded=1;whiteSpace=wrap;html=1;arcSize=40;fontColor=#000000;fillColor=#ffffc0;strokeColor=#ff0000;" parent="1" vertex="1">
          <mxGeometry x="350" y="70" width="120" height="40" as="geometry" />
        </mxCell>
        <mxCell id="Jq019d58K4UbgzTfv4ik-23" value="&amp;lt;&amp;lt;extend&amp;gt;&amp;gt;" style="edgeStyle=none;rounded=0;orthogonalLoop=1;jettySize=auto;html=1;entryX=1;entryY=0.5;entryDx=0;entryDy=0;endArrow=classic;endFill=1;dashed=1;" parent="1" source="Jq019d58K4UbgzTfv4ik-11" target="Jq019d58K4UbgzTfv4ik-9" edge="1">
          <mxGeometry relative="1" as="geometry" />
        </mxCell>
        <mxCell id="Jq019d58K4UbgzTfv4ik-11" value="로그인 실패" style="rounded=1;whiteSpace=wrap;html=1;arcSize=40;fontColor=#000000;fillColor=#ffffc0;strokeColor=#ff0000;" parent="1" vertex="1">
          <mxGeometry x="350" y="150" width="120" height="40" as="geometry" />
        </mxCell>
        <mxCell id="Jq019d58K4UbgzTfv4ik-29" style="edgeStyle=none;rounded=0;orthogonalLoop=1;jettySize=auto;html=1;entryX=1;entryY=0.5;entryDx=0;entryDy=0;dashed=1;endArrow=classic;endFill=1;" parent="1" source="Jq019d58K4UbgzTfv4ik-13" target="Jq019d58K4UbgzTfv4ik-7" edge="1">
          <mxGeometry relative="1" as="geometry" />
        </mxCell>
        <mxCell id="Jq019d58K4UbgzTfv4ik-13" value="게시판 정렬" style="rounded=1;whiteSpace=wrap;html=1;arcSize=40;fontColor=#000000;fillColor=#ffffc0;strokeColor=#ff0000;" parent="1" vertex="1">
          <mxGeometry x="140" y="210" width="120" height="40" as="geometry" />
        </mxCell>
        <mxCell id="Jq019d58K4UbgzTfv4ik-31" style="edgeStyle=none;rounded=0;orthogonalLoop=1;jettySize=auto;html=1;dashed=1;endArrow=classic;endFill=1;" parent="1" source="Jq019d58K4UbgzTfv4ik-15" target="Jq019d58K4UbgzTfv4ik-7" edge="1">
          <mxGeometry relative="1" as="geometry" />
        </mxCell>
        <mxCell id="Jq019d58K4UbgzTfv4ik-15" value="게시판 검색" style="rounded=1;whiteSpace=wrap;html=1;arcSize=40;fontColor=#000000;fillColor=#ffffc0;strokeColor=#ff0000;" parent="1" vertex="1">
          <mxGeometry x="140" y="270" width="120" height="40" as="geometry" />
        </mxCell>
        <mxCell id="Jq019d58K4UbgzTfv4ik-32" style="edgeStyle=none;rounded=0;orthogonalLoop=1;jettySize=auto;html=1;entryX=0.226;entryY=0.762;entryDx=0;entryDy=0;entryPerimeter=0;dashed=1;endArrow=classic;endFill=1;" parent="1" source="Jq019d58K4UbgzTfv4ik-16" target="Jq019d58K4UbgzTfv4ik-4" edge="1">
          <mxGeometry relative="1" as="geometry" />
        </mxCell>
        <mxCell id="ERruL2lt8ln_11H1umPP-7" style="edgeStyle=none;rounded=0;orthogonalLoop=1;jettySize=auto;html=1;endArrow=none;endFill=0;" edge="1" parent="1" source="Jq019d58K4UbgzTfv4ik-16" target="ERruL2lt8ln_11H1umPP-1">
          <mxGeometry relative="1" as="geometry" />
        </mxCell>
        <mxCell id="Jq019d58K4UbgzTfv4ik-16" value="게시글 쓰기, 수정, 삭제" style="rounded=1;whiteSpace=wrap;html=1;arcSize=40;fontColor=#000000;fillColor=#ffffc0;strokeColor=#ff0000;" parent="1" vertex="1">
          <mxGeometry x="140" y="350" width="130" height="40" as="geometry" />
        </mxCell>
        <mxCell id="Jq019d58K4UbgzTfv4ik-33" style="edgeStyle=none;rounded=0;orthogonalLoop=1;jettySize=auto;html=1;entryX=1;entryY=0.75;entryDx=0;entryDy=0;dashed=1;endArrow=classic;endFill=1;" parent="1" source="Jq019d58K4UbgzTfv4ik-17" target="Jq019d58K4UbgzTfv4ik-8" edge="1">
          <mxGeometry relative="1" as="geometry" />
        </mxCell>
        <mxCell id="ERruL2lt8ln_11H1umPP-8" style="edgeStyle=none;rounded=0;orthogonalLoop=1;jettySize=auto;html=1;endArrow=none;endFill=0;" edge="1" parent="1" source="Jq019d58K4UbgzTfv4ik-17" target="Jq019d58K4UbgzTfv4ik-4">
          <mxGeometry relative="1" as="geometry" />
        </mxCell>
        <mxCell id="ERruL2lt8ln_11H1umPP-9" style="edgeStyle=none;rounded=0;orthogonalLoop=1;jettySize=auto;html=1;endArrow=none;endFill=0;" edge="1" parent="1" source="Jq019d58K4UbgzTfv4ik-17" target="ERruL2lt8ln_11H1umPP-1">
          <mxGeometry relative="1" as="geometry" />
        </mxCell>
        <mxCell id="Jq019d58K4UbgzTfv4ik-17" value="댓글 보기, 쓰기, 수정, 삭제" style="rounded=1;whiteSpace=wrap;html=1;arcSize=40;fontColor=#000000;fillColor=#ffffc0;strokeColor=#ff0000;" parent="1" vertex="1">
          <mxGeometry x="140" y="420" width="130" height="40" as="geometry" />
        </mxCell>
        <mxCell id="ERruL2lt8ln_11H1umPP-6" style="edgeStyle=none;rounded=0;orthogonalLoop=1;jettySize=auto;html=1;entryX=1;entryY=0.5;entryDx=0;entryDy=0;endArrow=none;endFill=0;" edge="1" parent="1" source="ERruL2lt8ln_11H1umPP-1" target="Jq019d58K4UbgzTfv4ik-8">
          <mxGeometry relative="1" as="geometry" />
        </mxCell>
        <mxCell id="ERruL2lt8ln_11H1umPP-1" value="DB" style="html=1;dropTarget=0;" vertex="1" parent="1">
          <mxGeometry x="580" y="210" width="180" height="90" as="geometry" />
        </mxCell>
      </root>
    </mxGraphModel>
  </diagram>
</mxfile>
